HIERARCHY
ROOT hip
{
  OFFSET 0 0 0
  CHANNELS 6 Xposition Yposition Zposition Zrotation Yrotation Xrotation
  JOINT abdomen
  {
    OFFSET 0 20.6881 -0.73152
    CHANNELS 3 Zrotation Xrotation Yrotation
    JOINT chest
    {
      OFFSET 0 11.7043 -0.48768
      CHANNELS 3 Zrotation Xrotation Yrotation
      JOINT neck
      {
        OFFSET 0 22.1894 -2.19456
        CHANNELS 3 Zrotation Xrotation Yrotation
        JOINT head
        {
          OFFSET -0.24384 7.07133 1.2192
          CHANNELS 3 Zrotation Xrotation Yrotation
          JOINT leftEye
          {
            OFFSET 4.14528 8.04674 8.04672
            CHANNELS 3 Zrotation Xrotation Yrotation
            End Site
            {
              OFFSET 1 0 0
            }
          }
          JOINT rightEye
          {
            OFFSET -3.6576 8.04674 8.04672
            CHANNELS 3 Zrotation Xrotation Yrotation
            End Site
            {
              OFFSET 1 0 0
            }
          }
        }
      }
      JOINT rCollar
      {
        OFFSET -2.68224 19.2634 -4.8768
        CHANNELS 3 Zrotation Xrotation Yrotation
        JOINT rShldr
        {
          OFFSET -8.77824 -1.95073 1.46304
          CHANNELS 3 Zrotation Xrotation Yrotation
          JOINT rForeArm
          {
            OFFSET -28.1742 -1.7115 0.48768
            CHANNELS 3 Zrotation Xrotation Yrotation
            JOINT rHand
            {
              OFFSET -22.5879 0.773209 7.07136
              CHANNELS 3 Zrotation Xrotation Yrotation
              JOINT rThumb1
              {
                OFFSET -1.2192 -0.487915 3.41376
                CHANNELS 3 Zrotation Xrotation Yrotation
                JOINT rThumb2
                {
                  OFFSET -3.37035 -0.52449 3.41376
                  CHANNELS 3 Zrotation Xrotation Yrotation
                  End Site
                  {
                    OFFSET -1.78271 -1.18214 1.43049
                  }
                }
              }
              JOINT rIndex1
              {
                OFFSET -7.75947 0.938293 5.60832
                CHANNELS 3 Zrotation Xrotation Yrotation
                JOINT rIndex2
                {
                  OFFSET -2.54057 -0.884171 1.56538
                  CHANNELS 3 Zrotation Xrotation Yrotation
                  End Site
                  {
                    OFFSET -1.62519 -0.234802 1.16502
                  }
                }
              }
              JOINT rMid1
              {
                OFFSET -8.24714 1.18213 3.41376
                CHANNELS 3 Zrotation Xrotation Yrotation
                JOINT rMid2
                {
                  OFFSET -3.10165 -0.590103 1.0647
                  CHANNELS 3 Zrotation Xrotation Yrotation
                  End Site
                  {
                    OFFSET -2.48547 -0.328903 0.83742
                  }
                }
              }
              JOINT rRing1
              {
                OFFSET -8.82822 0.546677 1.51678
                CHANNELS 3 Zrotation Xrotation Yrotation
                JOINT rRing2
                {
                  OFFSET -2.60934 -0.819778 -0.0198488
                  CHANNELS 3 Zrotation Xrotation Yrotation
                  End Site
                  {
                    OFFSET -2.33842 -0.294052 0.168128
                  }
                }
              }
              JOINT rPinky1
              {
                OFFSET -8.27202 -0.0477905 -0.4584
                CHANNELS 3 Zrotation Xrotation Yrotation
                JOINT rPinky2
                {
                  OFFSET -1.82734 -0.647385 -0.700984
                  CHANNELS 3 Zrotation Xrotation Yrotation
                  End Site
                  {
                    OFFSET -1.69225 -0.51767 -0.607171
                  }
                }
              }
            }
          }
        }
      }
      JOINT lCollar
      {
        OFFSET 2.68224 19.2634 -4.8768
        CHANNELS 3 Zrotation Xrotation Yrotation
        JOINT lShldr
        {
          OFFSET 8.77824 -1.95073 1.46304
          CHANNELS 3 Zrotation Xrotation Yrotation
          JOINT lForeArm
          {
            OFFSET 28.1742 -1.7115 0.48768
            CHANNELS 3 Zrotation Xrotation Yrotation
            JOINT lHand
            {
              OFFSET 22.5879 0.773209 7.07136
              CHANNELS 3 Zrotation Xrotation Yrotation
              JOINT lThumb1
              {
                OFFSET 1.2192 -0.487915 3.41376
                CHANNELS 3 Zrotation Xrotation Yrotation
                JOINT lThumb2
                {
                  OFFSET 3.37035 -0.52449 3.41376
                  CHANNELS 3 Zrotation Xrotation Yrotation
                  End Site
                  {
                    OFFSET 1.78271 -1.18214 1.43049
                  }
                }
              }
              JOINT lIndex1
              {
                OFFSET 7.75947 0.938293 5.60832
                CHANNELS 3 Zrotation Xrotation Yrotation
                JOINT lIndex2
                {
                  OFFSET 2.54057 -0.884171 1.56538
                  CHANNELS 3 Zrotation Xrotation Yrotation
                  End Site
                  {
                    OFFSET 1.62519 -0.234802 1.16502
                  }
                }
              }
              JOINT lMid1
              {
                OFFSET 8.24714 1.18213 3.41376
                CHANNELS 3 Zrotation Xrotation Yrotation
                JOINT lMid2
                {
                  OFFSET 3.10165 -0.590103 1.0647
                  CHANNELS 3 Zrotation Xrotation Yrotation
                  End Site
                  {
                    OFFSET 2.48547 -0.328903 0.83742
                  }
                }
              }
              JOINT lRing1
              {
                OFFSET 8.82822 0.546677 1.51678
                CHANNELS 3 Zrotation Xrotation Yrotation
                JOINT lRing2
                {
                  OFFSET 2.60934 -0.819778 -0.0198488
                  CHANNELS 3 Zrotation Xrotation Yrotation
                  End Site
                  {
                    OFFSET 2.33842 -0.294052 0.168128
                  }
                }
              }
              JOINT lPinky1
              {
                OFFSET 8.27202 -0.0477905 -0.4584
                CHANNELS 3 Zrotation Xrotation Yrotation
                JOINT lPinky2
                {
                  OFFSET 1.82734 -0.647385 -0.700984
                  CHANNELS 3 Zrotation Xrotation Yrotation
                  End Site
                  {
                    OFFSET 1.69225 -0.51767 -0.607171
                  }
                }
              }
            }
          }
        }
      }
    }
  }
  JOINT rButtock
  {
    OFFSET -8.77824 4.35084 1.2192
    CHANNELS 3 Zrotation Xrotation Yrotation
    JOINT rThigh
    {
      OFFSET 0 -1.70687 -2.19456
      CHANNELS 3 Zrotation Xrotation Yrotation
      JOINT rShin
      {
        OFFSET 0 -36.8199 0.73152
        CHANNELS 3 Zrotation Xrotation Yrotation
        JOINT rFoot
        {
          OFFSET 0.73152 -45.1104 -5.12064
          CHANNELS 3 Zrotation Xrotation Yrotation
          End Site
          {
            OFFSET -1.1221 -3.69964 12.103
          }
        }
      }
    }
  }
  JOINT lButtock
  {
    OFFSET 8.77824 4.35084 1.2192
    CHANNELS 3 Zrotation Xrotation Yrotation
    JOINT lThigh
    {
      OFFSET 0 -1.70687 -2.19456
      CHANNELS 3 Zrotation Xrotation Yrotation
      JOINT lShin
      {
        OFFSET 0 -36.8199 0.73152
        CHANNELS 3 Zrotation Xrotation Yrotation
        JOINT lFoot
        {
          OFFSET -0.73152 -45.1104 -5.12064
          CHANNELS 3 Zrotation Xrotation Yrotation
          End Site
          {
            OFFSET 1.1221 -3.69964 12.103
          }
        }
      }
    }
  }
}
MOTION
Frames:	4
Frame Time:	0.00833333
194.811 68.3615 47.9279 683.797 75.2119 340.838 -13.3565 36.3573 8.2639 1.36047 -9.08259 1.41222 2.35611 -12.519 7.70878 -2.19818 -23.6541 14.9931 -0.0 0.0 0.0 -0.0 0.0 0.0 -2.63317e-14 8.32369e-13 1.56432e-13 65.6328 41.1039 20.7204 -11.8572 -5.34771 21.3363 -4.54638 -50.1575 -9.69657 -1.00092e-09 -9.81353e-10 1.68057e-09 -1.79176e-09 -1.67479e-09 2.85969e-09 -1.00091e-09 -9.81353e-10 1.68057e-09 7.73091 5.47488 0.417314 -1.00092e-09 -9.81354e-10 1.68057e-09 2.90554 0.965183 0.102902 -1.00092e-09 -9.81351e-10 1.68058e-09 10.2786 0.731801 0.0259123 -1.00092e-09 -9.81348e-10 1.68059e-09 2.22167 -0.733487 -0.20892 -2.63787e-14 8.32378e-13 1.56293e-13 44.4097 30.5195 -126.059 21.7769 -15.4258 -43.1908 0.0207252 -4.0328 0.567998 4.80986e-11 3.55606e-09 6.60126e-10 7.98527e-11 6.13412e-09 1.14177e-09 4.80995e-11 3.55605e-09 6.60136e-10 -7.73091 5.47488 -0.417314 4.80993e-11 3.55606e-09 6.60129e-10 -2.90554 0.965183 -0.102902 4.80898e-11 3.55606e-09 6.60131e-10 -10.2786 0.731801 -0.0259123 4.81114e-11 3.55606e-09 6.60127e-10 -2.22167 -0.733487 0.20892 -2.03217e-16 0.0 -3.88251e-19 -26.5131 -40.689 -14.8807 -0.439829 49.5009 1.56732 -3.04267 -12.9722 -10.8297 2.03217e-16 0.0 3.88251e-19 40.4914 -63.3821 42.2066 4.18152 79.395 -5.52392 10.7316 -24.8376 18.971
195.084 68.6348 47.8146 682.697 75.434 339.879 -12.9879 36.2544 7.93684 1.48681 -9.02749 1.36653 2.39107 -12.9333 7.56923 -2.09469 -23.6913 14.7264 -0.0 0.0 0.0 -0.0 0.0 0.0 -2.26794e-13 2.682e-12 2.85998e-13 65.0788 41.5486 21.1761 -11.9913 -5.43844 21.6008 -4.6146 -50.4094 -9.78498 7.21466e-10 -3.56055e-10 3.38146e-10 1.22932e-09 -6.6069e-10 6.11664e-10 7.21476e-10 -3.56056e-10 3.38144e-10 7.73091 5.47488 0.417314 7.21466e-10 -3.56056e-10 3.38143e-10 2.90554 0.965183 0.102902 7.2147e-10 -3.56054e-10 3.38151e-10 10.2786 0.731801 0.0259123 7.21465e-10 -3.5605e-10 3.3816e-10 2.22167 -0.733487 -0.20892 -2.26863e-13 2.68201e-12 2.8588e-13 44.4201 30.7021 -125.909 21.7956 -15.4534 -43.2408 0.0339407 -4.94039 0.696981 8.76388e-10 4.8626e-09 1.0298e-10 1.51502e-09 8.42341e-09 1.82653e-10 8.76391e-10 4.8626e-09 1.0299e-10 -7.73091 5.47488 -0.417314 8.7639e-10 4.86261e-09 1.02986e-10 -2.90554 0.965183 -0.102902 8.76382e-10 4.8626e-09 1.02986e-10 -10.2786 0.731801 -0.0259123 8.764e-10 4.86261e-09 1.02986e-10 -2.22167 -0.733487 0.20892 -2.03217e-16 0.0 -3.88251e-19 -25.9574 -41.1539 -14.9849 -0.437919 49.319 1.54017 -2.95164 -12.9037 -10.5119 2.03217e-16 0.0 3.88251e-19 39.104 -63.27 40.6324 3.89694 78.7755 -5.23661 10.9464 -25.021 19.2612
195.368 68.9656 47.6998 681.763 75.7343 339.047 -12.5791 36.1969 7.59803 1.59078 -8.98126 1.31807 2.47102 -13.3478 7.46261 -2.09648 -23.7224 14.4818 -0.0 0.0 0.0 -0.0 0.0 0.0 -4.16396e-13 4.38249e-12 3.97824e-13 64.4447 42.0744 21.69 -12.1736 -5.56666 21.9552 -4.70624 -50.7442 -9.90353 2.40903e-09 2.80555e-10 -1.00413e-09 4.19024e-09 3.73649e-10 -1.63743e-09 2.40904e-09 2.80554e-10 -1.00413e-09 7.73091 5.47488 0.417314 2.40903e-09 2.80553e-10 -1.00413e-09 2.90554 0.965183 0.102902 2.40904e-09 2.80555e-10 -1.00412e-09 10.2786 0.731801 0.0259123 2.40903e-09 2.8056e-10 -1.00411e-09 2.22167 -0.733487 -0.20892 -4.16494e-13 4.3825e-12 3.97724e-13 44.3922 30.8889 -125.706 21.8122 -15.4778 -43.285 0.0500836 -6.05929 0.855846 1.67066e-09 6.12759e-09 -4.65378e-10 2.89203e-09 1.06437e-08 -7.95965e-10 1.67067e-09 6.1276e-09 -4.65368e-10 -7.73091 5.47488 -0.417314 1.67067e-09 6.12761e-09 -4.65369e-10 -2.90554 0.965183 -0.102902 1.67066e-09 6.1276e-09 -4.65371e-10 -10.2786 0.731801 -0.0259123 1.67067e-09 6.12761e-09 -4.65367e-10 -2.22167 -0.733487 0.20892 -2.03217e-16 0.0 -3.88251e-19 -25.3185 -41.7044 -15.0469 -0.437865 49.1887 1.51557 -2.89582 -12.8631 -10.2847 2.03217e-16 0.0 3.88251e-19 37.8016 -63.1565 39.114 3.62903 78.1175 -4.96367 11.1328 -25.1668 19.5217
195.681 69.3288 47.5533 680.862 76.1403 338.221 -12.1928 36.1538 7.23058 1.6922 -8.94002 1.26027 2.55287 -13.6634 7.37595 -2.18175 -23.7151 14.2515 -0.0 0.0 0.0 -0.0 0.0 0.0 -4.98433e-13 4.94576e-12 4.07161e-13 63.7782 42.7258 22.1209 -12.4393 -5.76159 22.4636 -4.82687 -51.179 -10.0592 3.4267e-09 6.06206e-10 -1.70157e-09 5.97129e-09 8.93008e-10 -2.80025e-09 3.42671e-09 6.06205e-10 -1.70157e-09 7.73091 5.47488 0.417314 3.4267e-09 6.06204e-10 -1.70157e-09 2.90554 0.965183 0.102902 3.42671e-09 6.06205e-10 -1.70156e-09 10.2786 0.731801 0.0259123 3.4267e-09 6.06211e-10 -1.70156e-09 2.22167 -0.733487 -0.20892 -4.98555e-13 4.94577e-12 4.07061e-13 44.2902 31.19 -125.495 21.8272 -15.4999 -43.325 0.0690628 -7.47709 1.0569 2.09246e-09 6.49924e-09 -9.15122e-10 3.62543e-09 1.13144e-08 -1.57135e-09 2.09246e-09 6.49925e-09 -9.15112e-10 -7.73091 5.47488 -0.417314 2.09246e-09 6.49926e-09 -9.15112e-10 -2.90554 0.965183 -0.102902 2.09245e-09 6.49926e-09 -9.15116e-10 -10.2786 0.731801 -0.0259123 2.09247e-09 6.49926e-09 -9.15109e-10 -2.22167 -0.733487 0.20892 -2.03217e-16 0.0 -3.88251e-19 -24.8148 -42.2715 -15.2538 -0.442508 49.1929 1.49563 -2.86247 -12.8902 -10.0808 2.03217e-16 0.0 3.88251e-19 36.1933 -62.9678 37.3961 3.37329 77.4136 -4.70241 11.3308 -25.3311 19.7911
